<mxfile host="app.diagrams.net" modified="2024-04-23T09:38:25.834Z" agent="Mozilla/5.0 (Macintosh; Intel Mac OS X 10_15_7) AppleWebKit/537.36 (KHTML, like Gecko) Chrome/123.0.0.0 Safari/537.36" version="24.2.5" etag="xP5vY0yl84Z_MVDtSniC" type="github">
  <diagram name="第 1 页" id="iJ3RDaBsDkiibVPw74gK">
    <mxGraphModel>
      <root>
        <mxCell id="0" />
        <mxCell id="1" parent="0" />
      </root>
    </mxGraphModel>
  </diagram>
</mxfile>
